<?xml version="1.0" encoding="utf-8"?>
<!-- Generator: Adobe Illustrator 24.3.0, SVG Export Plug-In . SVG Version: 6.00 Build 0)  -->
<svg version="1.1" xmlns="http://www.w3.org/2000/svg" xmlns:xlink="http://www.w3.org/1999/xlink" x="0px" y="0px"
	 viewBox="0 0 288 288" style="enable-background:new 0 0 288 288;" xml:space="preserve">
<style type="text/css">
	.st0{fill:#448CD4;}
	.st1{opacity:0.2;fill:#448CD4;}
	.st2{fill:#FE8E11;}
	.st3{fill:#F8F8F4;}
	.st4{fill:#FFFFFF;}
	.st5{font-family:'Raleway-Medium';}
	.st6{font-size:12px;}
</style>
<g id="Layer_2">
</g>
<g id="Layer_1">
	<g>
		<g>
			<g>
				<rect x="74.1" y="79" class="st0" width="147" height="147"/>
				<rect x="74.1" y="79" class="st1" width="147" height="147"/>
				<g>
					<path class="st0" d="M229.1,234.1H66.1V71h163.1V234.1z M70.1,230.1h155.1V75H70.1V230.1z"/>
				</g>
			</g>
			<path class="st2" d="M71.9,106.9l24-54.1h21.5l-16.9,54.1H71.9z M39.1,106.9l24.3-54.1h21.5l-17.1,54.1H39.1z"/>
			<path class="st3" d="M112,56.8l-14.4,46.1H78.1l20.5-46.1H112 M79.4,56.8l-14.6,46.1H45.3l20.7-46.1H79.4 M122.9,48.8H112H98.6
				h-5.2l-2.1,4.8l-8.5,19L87,59.2l3.3-10.4H79.4H65.9h-5.2l-2.1,4.7L38,99.7l-5.1,11.3h12.4h19.5h1h12.3h19.5h5.9l1.8-5.6
				l14.4-46.1L122.9,48.8L122.9,48.8z"/>
			<g>
				<path class="st2" d="M218.4,252.9l17.1-54.1h28.7L240,252.9H218.4z M185.8,252.9l16.9-54.1h28.6l-24,54.1H185.8z"/>
				<path class="st3" d="M258,202.8l-20.7,46.1h-13.5l14.6-46.1H258 M225.2,202.8l-20.5,46.1h-13.5l14.4-46.1H225.2 M270.4,194.8
					H258h-19.5h-1h-12.3h-19.5h-5.9l-1.8,5.6l-14.4,46.1l-3.2,10.4h10.9h13.5h5.2l2.1-4.8l8.5-19l-4.2,13.4l-3.3,10.4h10.9h13.5h5.2
					l2.1-4.7l20.7-46.1L270.4,194.8L270.4,194.8z"/>
			</g>
			<g>
				<text transform="matrix(1 0 0 1 88.625 135.0927)"><tspan x="0" y="0" class="st4 st5 st6">Rien n&apos;est parfois plus </tspan><tspan x="4.3" y="14.4" class="st4 st5 st6">utile dans ce monde </tspan><tspan x="9.3" y="28.8" class="st4 st5 st6">que les choses qui </tspan><tspan x="18.8" y="43.2" class="st4 st5 st6">n&apos;ont l&apos;air de ne </tspan><tspan x="30.7" y="57.6" class="st4 st5 st6">servir à rien</tspan></text>
			</g>
		</g>
	</g>
</g>
</svg>
