<svg id="Calque_1" data-name="Calque 1" xmlns="http://www.w3.org/2000/svg" viewBox="0 0 120.68 120.26"><defs><style>.cls-1{fill:#b5cc04;}.cls-2{fill:none;stroke:#403e40;stroke-linecap:round;stroke-linejoin:round;stroke-width:4.47px;}</style></defs><path class="cls-1" d="M402.84,250a28.79,28.79,0,0,1,6.25-3.28c5.19-2,19.36-7.19,33.28,3.39l12,17.58,8.24-4.76-8.87,27.89-28.59-6.27,8.69-5-7.55-13.09s-7.44-15.22-23.47-16.45" transform="translate(-360.04 -238.69)"/><path class="cls-1" d="M386.41,347.07a28.55,28.55,0,0,1-6-3.77c-4.35-3.49-15.91-13.17-13.71-30.51L376,293.58l-8.24-4.75,28.59-6.27,8.86,27.89-8.69-5-7.55,13.09s-9.46,14.05-2.52,28.55" transform="translate(-360.04 -238.69)"/><path class="cls-1" d="M480.62,313.64a28.57,28.57,0,0,1-.28,7.05c-.84,5.51-3.45,20.36-19.57,27.13l-21.23,1.62V359l-19.73-21.62,19.73-21.63v10h15.11s16.89,1.16,26-12.1" transform="translate(-360.04 -238.69)"/><path class="cls-2" d="M399,247.32A29.09,29.09,0,0,1,405.3,244c5.24-2,19.54-7.26,33.59,3.42L451,265.17l8.32-4.8-8.95,28.16-28.86-6.33,8.78-5.07-7.63-13.2s-7.51-15.36-23.69-16.61" transform="translate(-360.04 -238.69)"/><path class="cls-2" d="M399,247.32c-2.05,2.09-12.24,18.33-12.24,18.33l20.5,11.93,11.69-19.22A29.42,29.42,0,0,0,399,247.32Z" transform="translate(-360.04 -238.69)"/><path class="cls-2" d="M382.41,345.34a28.85,28.85,0,0,1-6-3.81c-4.39-3.51-16.06-13.29-13.83-30.79l9.29-19.39-8.31-4.8,28.86-6.33,8.94,28.16-8.77-5.06L385,316.52s-9.55,14.19-2.54,28.82" transform="translate(-360.04 -238.69)"/><path class="cls-2" d="M382.41,345.34c2.84.74,22,1.44,22,1.44l.09-23.72L382,322.55A29.39,29.39,0,0,0,382.41,345.34Z" transform="translate(-360.04 -238.69)"/><path class="cls-2" d="M475.86,310.78a28.57,28.57,0,0,1-.28,7.12c-.85,5.56-3.48,20.55-19.76,27.38l-21.43,1.63v9.61l-19.91-21.83,19.91-21.83V323h15.25s17.06,1.18,26.22-12.21" transform="translate(-360.04 -238.69)"/><path class="cls-2" d="M475.86,310.78c-.78-2.82-9.75-19.76-9.75-19.76L445.53,302.8l10.8,19.73A29.39,29.39,0,0,0,475.86,310.78Z" transform="translate(-360.04 -238.69)"/></svg>