<?xml version="1.0" encoding="utf-8"?>
<!-- Generator: Adobe Illustrator 24.3.0, SVG Export Plug-In . SVG Version: 6.00 Build 0)  -->
<svg version="1.1" id="Calque_1" xmlns="http://www.w3.org/2000/svg" xmlns:xlink="http://www.w3.org/1999/xlink" x="0px" y="0px"
	 viewBox="0 0 841.9 595.3" style="enable-background:new 0 0 841.9 595.3;" xml:space="preserve">
<style type="text/css">
	.st0{fill:#1C3F8E;}
	.st1{fill:#9F4694;}
	.st2{fill:#E94B42;}
	.st3{fill:#BDD023;}
	.st4{stroke:#FFFFFF;stroke-width:0.9341;stroke-miterlimit:10;}
	.st5{fill:none;}
	.st6{fill:#FFFFFF;}
	.st7{font-family:'KristenITC-Regular';}
	.st8{font-size:40px;}
</style>
<g>
	<g>
		<path class="st0" d="M650.4,220.8H556c-0.7,0-1.3-0.6-1.3-1.3s0.6-1.3,1.3-1.3h94.5c0.7,0,1.3,0.6,1.3,1.3
			S651.2,220.8,650.4,220.8z"/>
	</g>
	<g>
		<path class="st0" d="M651.2,228.2h-94.5c-0.7,0-1.3-0.6-1.3-1.3s0.6-1.3,1.3-1.3h94.5c0.7,0,1.3,0.6,1.3,1.3
			S651.9,228.2,651.2,228.2z"/>
	</g>
	<g>
		<path class="st0" d="M568.9,206.8C568.9,206.8,568.9,206.8,568.9,206.8c-10.4,0-15.6-7.5-17.8-10.7l-0.3-0.4
			c-2.6-3.7,3.1-7.9,11.5-14.4l1.5-1.1c4.6-3.5,7.9-6,11.4-6c1.7,0,3.4,0.6,4.9,1.9c4.6,3.8,14.3,13.8,14.7,14.2
			c0.5,0.5,0.5,1.2,0.1,1.7c-0.4,0.5-10,12.6-22.7,14.4C571.1,206.8,570,206.8,568.9,206.8z M575.3,176.9c-2.6,0-5.8,2.4-9.8,5.5
			l-1.5,1.1c-5.4,4.1-12.1,9.2-11,10.8l0.3,0.4c2.1,3.1,6.6,9.5,15.6,9.5h0c1,0,1.9-0.1,2.9-0.2c9.8-1.4,17.9-9.8,20.3-12.6
			c-2.5-2.5-9.9-10.1-13.6-13.2C577.4,177.3,576.4,176.9,575.3,176.9z M570.1,199.5c-4.5,0-6.6-3.2-7.7-4.7
			c-0.1-0.2-0.2-0.3-0.3-0.4c-1.7-2.4,1.4-4.7,6.1-8.2l0.1,0c0.4-0.3,0.8-0.6,1.2-0.9c2.3-1.7,3.7-2.7,5.2-2.7c0.9,0,1.7,0.3,2.5,1
			c2.1,1.7,6.9,6.7,7.1,6.9c0.5,0.5,0.5,1.3,0,1.9c-0.2,0.2-5.9,5.7-12,7C571.6,199.4,570.8,199.5,570.1,199.5z M564.4,193
			c0.1,0.1,0.2,0.2,0.3,0.4c0.9,1.3,2.3,3.6,5.5,3.6c0.5,0,1.1-0.1,1.7-0.2c4-0.9,8-3.9,9.8-5.5c-1.5-1.6-4.5-4.6-6-5.7
			c-0.5-0.4-0.7-0.4-0.9-0.4c-0.7,0-1.9,0.9-3.7,2.2c-0.4,0.3-0.8,0.6-1.2,0.9l-0.1,0C567.6,190,564.7,192.1,564.4,193z"/>
	</g>
	<g>
		<path class="st0" d="M583.2,220.4C583.2,220.4,583.2,220.4,583.2,220.4c-0.7,0-1.3-0.6-1.3-1.3l0-5.5l-11.3,0.8
			c-0.4,0-0.7-0.1-1-0.4c-0.3-0.3-0.4-0.6-0.4-1l0.4-7.2c0-0.7,0.6-1.3,1.4-1.2c0.7,0,1.3,0.7,1.2,1.4l-0.3,5.8l11.3-0.8
			c0.4,0,0.7,0.1,1,0.4c0.3,0.2,0.4,0.6,0.4,1l0,6.9C584.5,219.9,583.9,220.4,583.2,220.4z"/>
	</g>
	<g>
		<path class="st0" d="M630.3,257.5c-0.1,0-0.3,0-0.4-0.1c-0.6-0.2-0.9-0.7-0.9-1.3l0.1-8.2l-10.4,0.9c-0.4,0-0.7-0.1-1-0.3
			s-0.4-0.6-0.4-1l0.1-8.1l-10.4,0.9c-0.4,0-0.7-0.1-1-0.3c-0.3-0.2-0.4-0.6-0.4-1l0.1-8.4l-0.3-3c-0.1-0.7,0.5-1.4,1.2-1.4
			c0.7-0.1,1.4,0.5,1.4,1.2l0.3,3.1c0,0,0,0.1,0,0.1l0,7.1l10.4-0.9c0.4,0,0.7,0.1,1,0.3c0.3,0.2,0.4,0.6,0.4,1l-0.1,8.1l10.4-0.9
			c0.4,0,0.7,0.1,1,0.3c0.3,0.3,0.4,0.6,0.4,1l0,5.1l9.1-14l-6.8-6.5c-0.5-0.5-0.5-1.3,0-1.9c0.5-0.5,1.3-0.5,1.9,0l7.6,7.3
			c0.5,0.4,0.5,1.1,0.2,1.7l-12.1,18.6C631.1,257.2,630.7,257.5,630.3,257.5z"/>
	</g>
	<g>
		<path class="st0" d="M622.6,219.9c-0.3,0-0.7-0.1-0.9-0.4l-28.6-27.3c-0.5-0.5-0.5-1.3,0-1.9c0.5-0.5,1.3-0.5,1.9,0l28.6,27.3
			c0.5,0.5,0.5,1.3,0,1.9C623.3,219.8,622.9,219.9,622.6,219.9z"/>
	</g>
</g>
<g>
	<g>
		<g>
			<path class="st1" d="M476.3,254.1c-3.4,0-6.1-2.7-6.1-6.1v-18.6c0-0.7,0.5-1.2,1.2-1.2h9.7c0.7,0,1.2,0.5,1.2,1.2V248
				C482.3,251.4,479.6,254.1,476.3,254.1z M472.6,230.7V248c0,2,1.6,3.6,3.6,3.6s3.6-1.6,3.6-3.6v-17.3H472.6z"/>
		</g>
		<g>
			<path class="st1" d="M476.4,218.1c-5.5,0-10.7-1.1-14.8-3c-0.4-0.2-0.6-0.5-0.7-0.9c-1.9-12,4.5-24.6,10.6-31.8
				c3.1-3.6,4.3-3.6,4.6-3.6h0.3c0.4,0,1.5,0,4.6,3.6c6.1,7.1,12.5,19.8,10.6,31.8c-0.1,0.5-0.4,0.9-0.9,1c-0.1,0-0.1,0.1-0.2,0.1
				C486.7,217.1,481.6,218.1,476.4,218.1z M463.3,213.2c3.6,1.6,8.2,2.5,13.1,2.5c4.8,0,9.4-0.9,13-2.5c2.1-15.6-10.7-30.9-13-32
				h-0.1C474,182.3,461.2,197.6,463.3,213.2z"/>
		</g>
		<g>
			<path class="st1" d="M476.3,229.8c-0.7,0-1.2-0.5-1.2-1.2v-23.5c0-0.7,0.5-1.2,1.2-1.2s1.2,0.5,1.2,1.2v23.5
				C477.5,229.3,476.9,229.8,476.3,229.8z"/>
		</g>
	</g>
	<g>
		<path class="st1" d="M462.2,241.6h-29.9c-1.4,0-2.6-1.2-2.6-2.6v-12.9c0-1.4,1.2-2.6,2.6-2.6h29.9c1.4,0,2.6,1.2,2.6,2.6V239
			C464.8,240.4,463.6,241.6,462.2,241.6z M432.4,226c-0.1,0-0.1,0.1-0.1,0.1V239c0,0.1,0.1,0.1,0.1,0.1h29.9c0.1,0,0.1-0.1,0.1-0.1
			v-12.9c0-0.1-0.1-0.1-0.1-0.1H432.4z"/>
	</g>
	<g>
		<path class="st1" d="M458.4,200.5h-21.8c-1.4,0-2.6-1.2-2.6-2.6V185c0-1.4,1.2-2.6,2.6-2.6h29.5c0.7,0,1.2,0.5,1.2,1.2
			c0,0.7-0.5,1.2-1.2,1.2h-29.5c-0.1,0-0.1,0.1-0.1,0.1v12.9c0,0.1,0.1,0.1,0.1,0.1h21.8c0.7,0,1.2,0.5,1.2,1.2
			C459.6,200,459.1,200.5,458.4,200.5z"/>
	</g>
	<g>
		<path class="st1" d="M446.4,221.3h-30.2c-1.4,0-2.6-1.2-2.6-2.6v-12.9c0-1.4,1.2-2.6,2.6-2.6h30.2c1.4,0,2.6,1.2,2.6,2.6v12.9
			C449,220.2,447.8,221.3,446.4,221.3z M416.2,205.7c-0.1,0-0.1,0.1-0.1,0.1v12.9c0,0.1,0.1,0.1,0.1,0.1h30.2c0.1,0,0.1-0.1,0.1-0.1
			v-12.9c0-0.1-0.1-0.1-0.1-0.1H416.2z"/>
	</g>
	<g>
		<path class="st1" d="M462,221.3h-7.2c-1.4,0-2.6-1.2-2.6-2.6v-12.9c0-1.4,1.2-2.6,2.6-2.6h2.9c0.7,0,1.2,0.5,1.2,1.2
			c0,0.7-0.5,1.2-1.2,1.2h-2.9c-0.1,0-0.1,0.1-0.1,0.1v12.9c0,0.1,0.1,0.1,0.1,0.1h7.2c0.7,0,1.2,0.5,1.2,1.2
			C463.2,220.8,462.7,221.3,462,221.3z"/>
	</g>
</g>
<g>
	<g>
		<path class="st2" d="M345.4,257.5c-4.4,0-8.1-3.6-8.1-8.1v-8.6c0-0.8,0.6-1.4,1.4-1.4s1.4,0.6,1.4,1.4v8.6c0,2.9,2.4,5.3,5.3,5.3
			c2.9,0,5.3-2.4,5.3-5.3v-50.3c0-0.8,0.6-1.4,1.4-1.4s1.4,0.6,1.4,1.4v50.3C353.5,253.9,349.9,257.5,345.4,257.5z"/>
	</g>
	<g>
		<path class="st2" d="M274.8,257.5c-4.4,0-8.1-3.6-8.1-8.1v-8.6c0-0.8,0.6-1.4,1.4-1.4c0.8,0,1.4,0.6,1.4,1.4v8.6
			c0,2.9,2.4,5.3,5.3,5.3c0.8,0,1.4,0.6,1.4,1.4S275.6,257.5,274.8,257.5z"/>
	</g>
	<g>
		<path class="st2" d="M281.4,241.9c-0.8,0-1.4-0.6-1.4-1.4v-31.6c0-0.8,0.6-1.4,1.4-1.4s1.4,0.6,1.4,1.4v31.6
			C282.8,241.3,282.2,241.9,281.4,241.9z"/>
	</g>
	<g>
		<path class="st2" d="M345.8,257.5h-71c-0.8,0-1.4-0.6-1.4-1.4c0-0.8,0.6-1.4,1.4-1.4h71c0.8,0,1.4,0.6,1.4,1.4
			C347.2,256.9,346.5,257.5,345.8,257.5z"/>
	</g>
	<g>
		<path class="st2" d="M338.4,242.2h-70.3c-0.8,0-1.4-0.6-1.4-1.4c0-0.8,0.6-1.4,1.4-1.4h70.3c0.8,0,1.4,0.6,1.4,1.4
			C339.8,241.6,339.2,242.2,338.4,242.2z"/>
	</g>
	<g>
		<g>
			<path class="st2" d="M343.8,210.2l-1-1h-3l2.5,2.5c0.4,0.4,1.1,0.4,1.5,0C344.3,211.3,344.3,210.6,343.8,210.2z"/>
		</g>
		<g>
			<path class="st2" d="M350.3,218.1c0.4-0.4,0.4-1.1,0-1.5l-2.9-2.9c-0.4-0.4-1.1-0.4-1.5,0c-0.2,0.2-0.3,0.5-0.3,0.7
				c0,0.3,0.1,0.5,0.3,0.7l2.9,2.9C349.2,218.5,349.9,218.5,350.3,218.1z"/>
		</g>
	</g>
	<g>
		<path class="st2" d="M331.7,216.6l-2.9-2.9c-0.4-0.4-1.1-0.4-1.5,0c-0.2,0.2-0.3,0.5-0.3,0.7c0,0.3,0.1,0.5,0.3,0.7l2.9,2.9
			c0.4,0.4,1.1,0.4,1.5,0C332.1,217.7,332.1,217,331.7,216.6z"/>
	</g>
	<g>
		<path class="st2" d="M325.3,210.2l-0.6-0.6h-3l2.1,2.1c0.4,0.4,1.1,0.4,1.5,0C325.7,211.3,325.7,210.6,325.3,210.2z"/>
	</g>
	<g>
		<path class="st2" d="M344.6,229.5l-2.9-2.9c-0.4-0.4-1.1-0.4-1.5,0c-0.2,0.2-0.3,0.5-0.3,0.7c0,0.3,0.1,0.5,0.3,0.7l2.9,2.9
			c0.4,0.4,1.1,0.4,1.5,0C345,230.6,345,229.9,344.6,229.5z"/>
	</g>
	<g>
		<path class="st2" d="M351,237.4c0.4-0.4,0.4-1.1,0-1.5l-2.9-2.9c-0.4-0.4-1.1-0.4-1.5,0c-0.2,0.2-0.3,0.5-0.3,0.7s0.1,0.5,0.3,0.7
			l2.9,2.9C349.9,237.8,350.6,237.8,351,237.4z"/>
	</g>
	<g>
		<path class="st2" d="M338.2,223l-2.9-2.9c-0.4-0.4-1.1-0.4-1.5,0c-0.2,0.2-0.3,0.5-0.3,0.7c0,0.3,0.1,0.5,0.3,0.7l2.9,2.9
			c0.4,0.4,1.1,0.4,1.5,0C338.6,224.1,338.6,223.5,338.2,223z"/>
	</g>
	<g>
		<path class="st2" d="M319.6,223l-2.9-2.9c-0.4-0.4-1.1-0.4-1.5,0c-0.2,0.2-0.3,0.5-0.3,0.7c0,0.3,0.1,0.5,0.3,0.7l2.9,2.9
			c0.4,0.4,1.1,0.4,1.5,0C320,224.1,320,223.5,319.6,223z"/>
	</g>
	<g>
		<path class="st2" d="M313.2,216.6l-2.9-2.9c-0.4-0.4-1.1-0.4-1.5,0c-0.2,0.2-0.3,0.5-0.3,0.7c0,0.3,0.1,0.5,0.3,0.7l2.9,2.9
			c0.4,0.4,1.1,0.4,1.5,0C313.6,217.7,313.6,217,313.2,216.6z"/>
	</g>
	<g>
		<path class="st2" d="M306.8,210.2l-1.1-1.1h-3l2.6,2.6c0.4,0.4,1.1,0.4,1.5,0C307.2,211.3,307.2,210.6,306.8,210.2z"/>
	</g>
	<g>
		<path class="st2" d="M345.3,250.2c0.4-0.4,0.4-1.1,0-1.5l-2.9-2.9c-0.4-0.4-1.1-0.4-1.5,0c-0.2,0.2-0.3,0.5-0.3,0.7
			c0,0.3,0.1,0.5,0.3,0.7l2.9,2.9C344.3,250.7,344.9,250.7,345.3,250.2z"/>
	</g>
	<g>
		<path class="st2" d="M332.5,235.9l-2.9-2.9c-0.4-0.4-1.1-0.4-1.5,0c-0.2,0.2-0.3,0.5-0.3,0.7s0.1,0.5,0.3,0.7l2.9,2.9
			c0.4,0.4,1.1,0.4,1.5,0C332.9,237,332.9,236.3,332.5,235.9z"/>
	</g>
	<g>
		<path class="st2" d="M326,229.5l-2.9-2.9c-0.4-0.4-1.1-0.4-1.5,0c-0.2,0.2-0.3,0.5-0.3,0.7c0,0.3,0.1,0.5,0.3,0.7l2.9,2.9
			c0.4,0.4,1.1,0.4,1.5,0C326.5,230.6,326.5,229.9,326,229.5z"/>
	</g>
	<g>
		<g>
			<path class="st2" d="M347.1,253.1c0-0.3,0.1-0.5,0.3-0.7c0.4-0.4,1.1-0.4,1.5,0l1.5,1.5c0.4,0.4,0.4,1.1,0,1.5
				c-0.4,0.4-1.1,0.4-1.5,0l-1.5-1.5C347.2,253.6,347.1,253.3,347.1,253.1z"/>
		</g>
	</g>
	<g>
		<path class="st2" d="M294.6,216.6l-2.9-2.9c-0.4-0.4-1.1-0.4-1.5,0c-0.2,0.2-0.3,0.5-0.3,0.7c0,0.3,0.1,0.5,0.3,0.7l2.9,2.9
			c0.4,0.4,1.1,0.4,1.5,0C295,217.7,295,217,294.6,216.6z"/>
	</g>
	<g>
		<path class="st2" d="M288.2,210.2l-0.9-0.9h-3l2.4,2.4c0.4,0.4,1.1,0.4,1.5,0C288.6,211.3,288.6,210.6,288.2,210.2z"/>
	</g>
	<g>
		<path class="st2" d="M301.1,223l-2.9-2.9c-0.4-0.4-1.1-0.4-1.5,0c-0.2,0.2-0.3,0.5-0.3,0.7c0,0.3,0.1,0.5,0.3,0.7l2.9,2.9
			c0.4,0.4,1.1,0.4,1.5,0C301.5,224.1,301.5,223.5,301.1,223z"/>
	</g>
	<g>
		<path class="st2" d="M313.9,237.4c0.4-0.4,0.4-1.1,0-1.5l-2.9-2.9c-0.4-0.4-1.1-0.4-1.5,0c-0.2,0.2-0.3,0.5-0.3,0.7
			s0.1,0.5,0.3,0.7l2.9,2.9C312.8,237.8,313.5,237.8,313.9,237.4z"/>
	</g>
	<g>
		<path class="st2" d="M307.5,229.5l-2.9-2.9c-0.4-0.4-1.1-0.4-1.5,0c-0.2,0.2-0.3,0.5-0.3,0.7c0,0.3,0.1,0.5,0.3,0.7l2.9,2.9
			c0.4,0.4,1.1,0.4,1.5,0C307.9,230.6,307.9,229.9,307.5,229.5z"/>
	</g>
	<g>
		<g>
			<g>
				<path class="st2" d="M284.3,227.4c0-0.3,0.1-0.5,0.3-0.7c0.4-0.4,1.1-0.4,1.5,0l2.9,2.9c0.4,0.4,0.4,1.1,0,1.5
					c-0.4,0.4-1.1,0.4-1.5,0l-2.9-2.9C284.4,227.9,284.3,227.6,284.3,227.4z M290.7,233.8c0-0.3,0.1-0.5,0.3-0.7
					c0.4-0.4,1.1-0.4,1.5,0l2.9,2.9c0.4,0.4,0.4,1.1,0,1.5c-0.4,0.4-1.1,0.4-1.5,0l-2.9-2.9C290.8,234.3,290.7,234.1,290.7,233.8z"
					/>
			</g>
		</g>
	</g>
	<g>
		<g>
			<path class="st2" d="M344.6,210.4c-5,0-8.9-6-8.9-13.6c0-7.6,3.9-13.6,8.9-13.6c5,0,8.9,6,8.9,13.6
				C353.5,204.4,349.6,210.4,344.6,210.4z M344.6,186c-3.3,0-6.1,5-6.1,10.8c0,5.9,2.8,10.8,6.1,10.8c3.3,0,6.1-5,6.1-10.8
				C350.6,190.9,347.9,186,344.6,186z"/>
		</g>
		<g>
			<path class="st2" d="M343.8,210.4h-61.7c-5,0-8.9-6-8.9-13.6c0-7.6,3.9-13.6,8.9-13.6h61.7c0.8,0,1.4,0.6,1.4,1.4
				c0,0.8-0.6,1.4-1.4,1.4h-61.7c-3.3,0-6.1,5-6.1,10.8c0,5.9,2.8,10.8,6.1,10.8h61.7c0.8,0,1.4,0.6,1.4,1.4
				C345.2,209.8,344.5,210.4,343.8,210.4z"/>
		</g>
		<g>
			<path class="st2" d="M345.1,199.9c-0.8,0-1.4-0.6-1.4-1.4V195c0-0.8,0.6-1.4,1.4-1.4c0.8,0,1.4,0.6,1.4,1.4v3.5
				C346.5,199.3,345.8,199.9,345.1,199.9z"/>
		</g>
	</g>
</g>
<g>
	<g>
		<g>
			<path class="st3" d="M194.5,264.3h-14.6c-0.8,0-1.4-0.6-1.4-1.4v-26.7c0-0.2,0-0.4,0.1-0.5l4.7-11.3c0.2-0.5,0.7-0.8,1.3-0.8
				l3.3,0l1.8,0c0.6,0,1.1,0.3,1.3,0.8l4.7,11.3c0.1,0.2,0.1,0.4,0.1,0.5v26.7C195.9,263.7,195.2,264.3,194.5,264.3z M181.3,261.5
				h11.8v-25.1l-4.3-10.2l-2.4,0l-0.9,0l-4.3,10.2V261.5z"/>
		</g>
		<g>
			<path class="st3" d="M214.8,207.8h-55.2c-1.9,0-3.4-1.5-3.4-3.4v-16.2c0-1.9,1.5-3.4,3.4-3.4h55.2c1.9,0,3.4,1.5,3.4,3.4v16.2
				C218.1,206.3,216.6,207.8,214.8,207.8z M159.6,187.7c-0.3,0-0.6,0.3-0.6,0.6v16.2c0,0.3,0.3,0.6,0.6,0.6h55.2
				c0.3,0,0.6-0.3,0.6-0.6v-16.2c0-0.3-0.3-0.6-0.6-0.6H159.6z"/>
		</g>
		<g>
			<path class="st3" d="M187.2,224.7c-0.8,0-1.4-0.6-1.4-1.4v-4.5c0-1.9,1.5-3.4,3.4-3.4l34.6,0.1c0.3,0,0.6-0.3,0.6-0.6v-16.1
				c0-0.3-0.3-0.6-0.6-0.6h-5.6c-0.8,0-1.4-0.6-1.4-1.4c0-0.8,0.6-1.4,1.4-1.4h5.6c1.9,0,3.4,1.5,3.4,3.4V215c0,1.9-1.5,3.4-3.4,3.4
				l-34.6-0.1c-0.3,0-0.6,0.3-0.6,0.6v4.5C188.5,224.1,187.9,224.7,187.2,224.7z"/>
		</g>
	</g>
	<g>
		<path class="st3" d="M163.2,227.1c-3.2,0-5.8-2.6-5.8-5.8c0-2.7,3.9-9.3,4.7-10.5c0.3-0.4,0.7-0.7,1.2-0.7c0.5,0,0.9,0.3,1.2,0.7
			c0.8,1.3,4.7,7.8,4.7,10.5C169.1,224.5,166.5,227.1,163.2,227.1z M163.2,214.2c-1.5,2.7-3.1,5.9-3.1,7.1c0,1.7,1.4,3.1,3.1,3.1
			s3.1-1.4,3.1-3.1C166.3,220.1,164.8,216.9,163.2,214.2z"/>
	</g>
	<g>
		<path class="st3" d="M178.4,202.4c-2.9,0-5.4-2.1-5.9-4.8c-0.4,0.1-0.8,0.2-1.2,0.2c-2.6,0-4.7-2.1-4.7-4.7V187
			c0-0.8,0.6-1.4,1.4-1.4c0.8,0,1.4,0.6,1.4,1.4v6.1c0,1.1,0.9,1.9,1.9,1.9c0.5,0,1.1-0.2,1.4-0.7c0.4-0.4,1-0.6,1.5-0.4
			c0.5,0.2,0.9,0.7,0.9,1.3v1.1c0,1.8,1.5,3.3,3.3,3.3c1.8,0,3.3-1.5,3.3-3.3v-2.4c0-0.6,0.4-1.1,0.9-1.3c0.5-0.2,1.2,0,1.5,0.4
			c0.4,0.5,1,0.8,1.7,0.8c1.2,0,2.2-1,2.2-2.2v-5.2c0-0.8,0.6-1.4,1.4-1.4c0.8,0,1.4,0.6,1.4,1.4v5.2c0,2.7-2.2,5-5,5
			c-0.5,0-0.9-0.1-1.4-0.2C184.4,199.7,181.7,202.4,178.4,202.4z"/>
	</g>
</g>
<rect x="115.1" y="238.5" class="st4" width="575.4" height="71.3"/>
<rect x="115.1" y="256.4" class="st5" width="575.4" height="203.4"/>
<text transform="matrix(1 0 0 1 150.4883 288.0982)" class="st6 st7 st8">Bricoleur du Dimanche.fr</text>
</svg>
